<svg width="236" height="40" viewBox="0 0 236 40" fill="none" xmlns="http://www.w3.org/2000/svg">
<rect x="0.5" y="0.5" width="235" height="39" fill="#E6EAEF"/>
<rect x="0.5" y="0.5" width="235" height="39" stroke="#D7DCE2"/>
<path d="M11.9066 29.4205V10.2205H17.4964V12.0564H14.0707V27.6051H17.4964V29.4205H11.9066Z" fill="#0F172A"/>
<path d="M33.6325 24.32C32.8192 24.32 32.1658 24.1933 31.6725 23.94C31.1792 23.6733 30.8858 23.3067 30.7925 22.84L30.6125 22.1L29.8125 23.74C29.3992 23.7 29.0125 23.6533 28.6525 23.6C28.3058 23.5467 27.9792 23.4667 27.6725 23.36C27.3392 23.24 27.0058 23.08 26.6725 22.88C26.3392 22.68 26.0592 22.4733 25.8325 22.26C25.6058 22.0467 25.4925 21.8667 25.4925 21.72C25.4925 21.6133 25.5325 21.42 25.6125 21.14C25.7058 20.8467 25.8125 20.54 25.9325 20.22C26.0525 19.9 26.1592 19.66 26.2525 19.5C26.3725 19.2333 26.6258 18.94 27.0125 18.62C27.3858 18.2867 27.8125 17.9667 28.2925 17.66C28.7725 17.34 29.1792 17.1067 29.5125 16.96L29.4125 16.16C29.7592 15.8933 30.0392 15.68 30.2525 15.52C30.4792 15.36 30.6858 15.22 30.8725 15.1C31.0592 14.9667 31.2658 14.8333 31.4925 14.7V21.42C32.1325 21.78 32.8458 21.96 33.6325 21.96C33.7392 21.96 33.7925 22.0133 33.7925 22.12V24.16C33.7925 24.2667 33.7392 24.32 33.6325 24.32ZM30.4125 21.36C30.3325 21.04 30.2458 20.6667 30.1525 20.24C30.0592 19.8 29.9525 19.3067 29.8325 18.76C28.5925 19.1733 27.6192 19.7133 26.9125 20.38C27.3392 20.6733 27.7458 20.88 28.1325 21C28.5192 21.1067 28.8858 21.1867 29.2325 21.24C29.5925 21.3067 29.9858 21.3467 30.4125 21.36ZM29.9925 14.32C29.7125 14.0933 29.4592 13.88 29.2325 13.68C29.0058 13.48 28.7992 13.28 28.6125 13.08C29.1058 12.6267 29.5525 12.16 29.9525 11.68C30.0725 11.8133 30.2392 11.98 30.4525 12.18C30.6658 12.38 30.9192 12.6267 31.2125 12.92C30.8525 13.4133 30.4458 13.88 29.9925 14.32ZM27.3125 14.62C26.7392 14.1533 26.2792 13.7333 25.9325 13.36C26.1592 13.1333 26.3858 12.9067 26.6125 12.68C26.8392 12.44 27.0658 12.2067 27.2925 11.98C27.5325 12.26 27.9458 12.6733 28.5325 13.22C28.1992 13.7 27.7925 14.1667 27.3125 14.62ZM33.4492 24.32C33.3426 24.32 33.2892 24.2667 33.2892 24.16V22.12C33.2892 22.0133 33.3426 21.96 33.4492 21.96C34.0892 21.96 34.6759 21.9467 35.2092 21.92C35.7559 21.88 36.2026 21.7733 36.5492 21.6C36.8159 21.4667 37.0159 21.2867 37.1492 21.06C37.2959 20.82 37.4759 20.4867 37.6892 20.06C37.9026 19.62 38.0892 19.3533 38.2492 19.26C38.4092 19.1533 38.5959 19.1 38.8092 19.1C39.1292 19.1 39.3959 19.1933 39.6092 19.38C39.4359 19.82 39.2692 20.2133 39.1092 20.56C38.9626 20.8933 38.8359 21.1867 38.7292 21.44C39.3826 21.7867 40.0826 21.96 40.8292 21.96C40.9359 21.96 40.9892 22.0133 40.9892 22.12V24.16C40.9892 24.2667 40.9359 24.32 40.8292 24.32C39.8159 24.32 38.8492 23.86 37.9292 22.94L37.7692 23.2C37.3959 23.6933 36.8759 24.0067 36.2092 24.14C35.5426 24.26 34.6226 24.32 33.4492 24.32ZM38.6092 28.36C38.0359 27.8933 37.5759 27.4733 37.2292 27.1C37.6559 26.7267 38.1026 26.26 38.5692 25.7C38.6092 25.74 38.7292 25.86 38.9292 26.06C39.1426 26.2733 39.4359 26.5733 39.8092 26.96C39.6759 27.16 39.5092 27.3733 39.3092 27.6C39.1092 27.84 38.8759 28.0933 38.6092 28.36ZM35.9292 28.66C35.5959 28.3933 35.3159 28.1533 35.0892 27.94C34.8759 27.7267 34.6959 27.54 34.5492 27.38C34.7759 27.1533 35.0026 26.92 35.2292 26.68C35.4559 26.4533 35.6826 26.2267 35.9092 26C36.0692 26.2 36.4826 26.6133 37.1492 27.24C36.8292 27.72 36.4226 28.1933 35.9292 28.66ZM40.6562 24.32C40.5496 24.32 40.4962 24.2667 40.4962 24.16V22.12C40.4962 22.0133 40.5496 21.96 40.6562 21.96C41.5229 21.96 42.1763 21.8 42.6163 21.48C42.7896 21.36 42.9429 21.1733 43.0763 20.92C43.2096 20.6667 43.3629 20.3733 43.5363 20.04C43.7496 19.6133 43.9363 19.3533 44.0963 19.26C44.2563 19.1533 44.4429 19.1 44.6563 19.1C44.9629 19.1 45.2296 19.1933 45.4563 19.38C45.3096 19.7133 45.1563 20.0533 44.9963 20.4C44.8496 20.7467 44.7029 21.0933 44.5563 21.44C45.2096 21.7867 45.9163 21.96 46.6763 21.96C46.7829 21.96 46.8363 22.0133 46.8363 22.12V24.16C46.8363 24.2667 46.7829 24.32 46.6763 24.32C45.6629 24.32 44.6963 23.86 43.7763 22.94C43.6963 23.0733 43.6163 23.1933 43.5363 23.3C43.4696 23.4067 43.4029 23.5067 43.3363 23.6C43.1629 23.8 42.8429 23.9733 42.3763 24.12C41.9096 24.2533 41.3363 24.32 40.6562 24.32ZM43.6763 17.36C42.9963 16.8 42.4829 16.32 42.1363 15.92C42.4429 15.6133 42.7163 15.3333 42.9563 15.08C43.2096 14.8133 43.4363 14.56 43.6363 14.32C43.7829 14.48 43.9763 14.68 44.2163 14.92C44.4563 15.16 44.7429 15.44 45.0763 15.76C44.9163 15.9867 44.7163 16.2333 44.4763 16.5C44.2496 16.7667 43.9829 17.0533 43.6763 17.36ZM46.5161 24.32C46.3961 24.32 46.3361 24.26 46.3361 24.14V22.14C46.3361 22.02 46.3961 21.96 46.5161 21.96C46.7428 21.96 46.9694 21.96 47.1961 21.96C47.4361 21.9467 47.6761 21.94 47.9161 21.94C47.7161 21.62 47.6161 21.3133 47.6161 21.02C47.6161 20.8467 47.6294 20.6133 47.6561 20.32C47.6961 20.0267 47.7428 19.7467 47.7961 19.48C47.8628 19.2133 47.9228 19.0267 47.9761 18.92C48.2294 18.4667 48.5361 18.06 48.8961 17.7C49.2694 17.3267 49.6694 17.0333 50.0961 16.82C50.5228 16.6067 50.9361 16.5 51.3361 16.5C51.6961 16.5 52.0561 16.7 52.4161 17.1C52.7894 17.5 53.0894 18.0133 53.3161 18.64C53.5428 19.28 53.6561 19.8733 53.6561 20.42C53.6561 20.94 53.5094 21.4467 53.2161 21.94C53.4961 21.94 53.7761 21.9467 54.0561 21.96C54.3494 21.96 54.6361 21.96 54.9161 21.96C55.0228 21.96 55.0761 22.0133 55.0761 22.12V24.16C55.0761 24.2667 55.0228 24.32 54.9161 24.32C53.2228 24.32 51.7961 24.1 50.6361 23.66C50.0228 23.9133 49.3894 24.0867 48.7361 24.18C48.0828 24.2733 47.3428 24.32 46.5161 24.32ZM50.5561 22.02C51.3694 21.7933 52.0294 21.4667 52.5361 21.04C52.4428 20.68 52.2961 20.3267 52.0961 19.98C51.9094 19.6333 51.7228 19.3733 51.5361 19.2C51.4028 19.04 51.2628 18.96 51.1161 18.96C50.4228 18.96 49.6161 19.58 48.6961 20.82C48.9361 21.1 49.2228 21.3467 49.5561 21.56C49.8894 21.76 50.2228 21.9133 50.5561 22.02ZM52.3961 14.96C52.1161 14.7333 51.8628 14.52 51.6361 14.32C51.4094 14.12 51.2028 13.92 51.0161 13.72C51.5094 13.2667 51.9561 12.8 52.3561 12.32C52.4761 12.4533 52.6428 12.62 52.8561 12.82C53.0694 13.02 53.3228 13.2667 53.6161 13.56C53.2561 14.0533 52.8494 14.52 52.3961 14.96ZM49.7161 15.26C49.1428 14.7933 48.6828 14.3733 48.3361 14C48.5628 13.7733 48.7894 13.5467 49.0161 13.32C49.2428 13.08 49.4694 12.8467 49.6961 12.62C49.9361 12.9 50.3494 13.3133 50.9361 13.86C50.6028 14.34 50.1961 14.8067 49.7161 15.26ZM54.7383 24.32C54.6316 24.32 54.5783 24.2667 54.5783 24.16V22.12C54.5783 22.0133 54.6316 21.96 54.7383 21.96C55.3783 21.96 55.9649 21.9467 56.4983 21.92C57.0449 21.88 57.4916 21.7733 57.8383 21.6C58.1049 21.4667 58.3049 21.2867 58.4383 21.06C58.5849 20.82 58.7649 20.4867 58.9783 20.06C59.1916 19.62 59.3783 19.3533 59.5383 19.26C59.6983 19.1533 59.8849 19.1 60.0983 19.1C60.4183 19.1 60.6849 19.1933 60.8983 19.38C60.7249 19.82 60.5583 20.2133 60.3983 20.56C60.2516 20.8933 60.1249 21.1867 60.0183 21.44C60.6716 21.7867 61.3716 21.96 62.1183 21.96C62.2249 21.96 62.2783 22.0133 62.2783 22.12V24.16C62.2783 24.2667 62.2249 24.32 62.1183 24.32C61.1049 24.32 60.1383 23.86 59.2183 22.94L59.0583 23.2C58.6849 23.6933 58.1649 24.0067 57.4983 24.14C56.8316 24.26 55.9116 24.32 54.7383 24.32ZM59.9383 17.46C59.6583 17.2333 59.4049 17.02 59.1783 16.82C58.9516 16.62 58.7449 16.42 58.5583 16.22C59.0516 15.7667 59.4983 15.3 59.8983 14.82C60.0183 14.9533 60.1849 15.12 60.3983 15.32C60.6116 15.52 60.8649 15.7667 61.1583 16.06C60.7983 16.5533 60.3916 17.02 59.9383 17.46ZM57.2583 17.76C56.6849 17.2933 56.2249 16.8733 55.8783 16.5C56.1049 16.2733 56.3316 16.0467 56.5583 15.82C56.7849 15.58 57.0116 15.3467 57.2383 15.12C57.4783 15.4 57.8916 15.8133 58.4783 16.36C58.1449 16.84 57.7383 17.3067 57.2583 17.76ZM61.9453 24.32C61.8386 24.32 61.7853 24.2667 61.7853 24.16V22.12C61.7853 22.0133 61.8386 21.96 61.9453 21.96C62.532 21.96 63.232 21.8067 64.0453 21.5C63.992 21.1133 63.9386 20.7267 63.8853 20.34C63.8453 19.94 63.792 19.5467 63.7253 19.16C63.672 18.7733 63.5386 18.0067 63.3253 16.86C63.112 15.7 62.832 14.1533 62.4853 12.22C62.832 11.98 63.2053 11.7533 63.6053 11.54C64.0186 11.3267 64.4386 11.1133 64.8653 10.9C64.892 11.9933 64.9186 13.0333 64.9453 14.02C64.972 14.9933 64.9986 15.9067 65.0253 16.76C65.052 17.6133 65.072 18.4067 65.0853 19.14C65.0986 19.86 65.1053 20.5333 65.1053 21.16C65.1053 22.0667 64.8453 22.9133 64.3253 23.7C64.192 23.8867 63.9053 24.04 63.4653 24.16C63.0386 24.2667 62.532 24.32 61.9453 24.32ZM68.7013 24.32C68.6346 22.9467 68.5679 21.74 68.5013 20.7C68.4346 19.66 68.3679 18.7067 68.3013 17.84C68.2346 16.96 68.1613 16.1067 68.0813 15.28C68.0013 14.4533 67.9146 13.56 67.8213 12.6C67.7813 12.2667 67.8546 11.9733 68.0413 11.72C68.2413 11.4667 68.5079 11.2667 68.8413 11.12C69.1879 10.9733 69.5613 10.9 69.9613 10.9C70.0679 11.3133 70.1879 11.7267 70.3213 12.14C70.4679 12.5533 70.6213 12.96 70.7813 13.36L70.0813 13.88C70.1079 14.9867 70.1146 16.4067 70.1013 18.14C70.0879 19.8733 70.0479 21.88 69.9813 24.16L68.7013 24.32ZM82.6589 24.5C81.0456 24.5 79.8256 24.1333 78.9989 23.4C78.1856 22.6667 77.7789 21.6133 77.7789 20.24C77.7789 19.6667 77.9056 18.9333 78.1589 18.04H79.0589C79.0456 18.0933 79.0322 18.24 79.0189 18.48C79.0056 18.72 78.9989 18.9067 78.9989 19.04C78.9989 19.8133 79.1456 20.4133 79.4389 20.84C79.7456 21.2533 80.2189 21.5733 80.8589 21.8C81.1789 21.8933 81.5522 21.9733 81.9789 22.04C82.4056 22.0933 82.8789 22.12 83.3989 22.12C84.5589 22.12 85.6989 22.0133 86.8189 21.8C87.9389 21.5867 88.9589 21.2733 89.8789 20.86C89.7456 20.5533 89.5722 20.2133 89.3589 19.84C89.1589 19.4533 88.9989 19.1533 88.8789 18.94C88.7456 18.6733 88.6322 18.44 88.5389 18.24C88.4456 18.0267 88.3989 17.8333 88.3989 17.66C88.3989 17.34 88.5789 16.9867 88.9389 16.6C89.2989 16.2133 89.7256 15.8933 90.2189 15.64C90.4322 16.64 90.5922 17.4533 90.6989 18.08C90.8189 18.7067 90.9056 19.1933 90.9589 19.54C91.0122 19.8733 91.0389 20.12 91.0389 20.28C91.0389 20.5867 90.9589 20.9733 90.7989 21.44C90.6522 21.8933 90.4722 22.3133 90.2589 22.7C89.6722 23.06 88.9656 23.3733 88.1389 23.64C87.3256 23.9067 86.4456 24.12 85.4989 24.28C84.5656 24.4267 83.6189 24.5 82.6589 24.5ZM84.9789 17.38C84.6989 17.1533 84.4456 16.94 84.2189 16.74C83.9922 16.54 83.7856 16.34 83.5989 16.14C84.0922 15.6867 84.5389 15.22 84.9389 14.74C85.0589 14.8733 85.2256 15.04 85.4389 15.24C85.6522 15.44 85.9056 15.6867 86.1989 15.98C85.8389 16.4733 85.4322 16.94 84.9789 17.38ZM82.2989 17.68C81.7256 17.2133 81.2656 16.7933 80.9189 16.42C81.1456 16.1933 81.3722 15.9667 81.5989 15.74C81.8256 15.5 82.0522 15.2667 82.2789 15.04C82.5189 15.32 82.9322 15.7333 83.5189 16.28C83.1856 16.76 82.7789 17.2267 82.2989 17.68ZM98.4322 24.32C97.6322 24.32 96.9855 24.1867 96.4922 23.92C96.0122 23.6533 95.6522 23.3 95.4122 22.86C95.1855 22.4067 95.0389 21.8933 94.9722 21.32C94.9455 21.0667 94.8989 20.6467 94.8322 20.06C94.7655 19.46 94.6922 18.78 94.6122 18.02C94.5455 17.26 94.4722 16.4933 94.3922 15.72C94.3122 14.9467 94.2389 14.2467 94.1722 13.62C94.1055 12.9933 94.0522 12.5267 94.0122 12.22C94.7589 11.7267 95.5522 11.2867 96.3922 10.9C96.4455 12.3933 96.4922 13.8867 96.5322 15.38C96.5855 16.8733 96.6322 18.3733 96.6722 19.88L96.7522 21.44C96.9922 21.64 97.2455 21.78 97.5122 21.86C97.7789 21.9267 98.0989 21.96 98.4722 21.96C98.5522 21.96 98.5922 22.0133 98.5922 22.12V24.16C98.5922 24.2667 98.5389 24.32 98.4322 24.32ZM98.2539 24.32C98.1472 24.32 98.0939 24.2667 98.0939 24.16V22.12C98.0939 22.0133 98.1472 21.96 98.2539 21.96C99.2272 21.96 100.054 21.9467 100.734 21.92C101.414 21.88 102.074 21.7667 102.714 21.58C103.287 21.4067 103.774 21.2667 104.174 21.16C104.587 21.0533 104.907 20.9733 105.134 20.92C104.961 20.8133 104.781 20.7067 104.594 20.6C104.421 20.48 104.241 20.36 104.054 20.24C103.627 19.96 103.267 19.76 102.974 19.64C102.694 19.52 102.407 19.46 102.114 19.46C101.714 19.46 101.334 19.52 100.974 19.64C100.614 19.7467 100.207 19.9467 99.7539 20.24C99.6339 20.12 99.5272 19.9467 99.4339 19.72C99.3406 19.48 99.2939 19.2533 99.2939 19.04C99.2939 18.4533 99.5539 17.98 100.074 17.62C100.594 17.2467 101.247 17.06 102.034 17.06C102.461 17.06 102.867 17.1333 103.254 17.28C103.654 17.4267 104.101 17.6667 104.594 18C105.194 18.4133 105.747 18.7467 106.254 19C106.761 19.24 107.361 19.4533 108.054 19.64C108.401 19.72 108.781 19.7867 109.194 19.84C109.607 19.88 110.061 19.9 110.554 19.9L109.674 21.58C109.514 21.5667 109.354 21.56 109.194 21.56C109.034 21.56 108.874 21.5533 108.714 21.54C108.847 21.66 108.994 21.7467 109.154 21.8C109.314 21.84 109.494 21.8733 109.694 21.9C110.001 21.9133 110.314 21.9267 110.634 21.94C110.967 21.94 111.281 21.9467 111.574 21.96C111.681 21.96 111.734 22.0133 111.734 22.12V24.16C111.734 24.2667 111.681 24.32 111.574 24.32C111.094 24.32 110.594 24.3 110.074 24.26C109.554 24.2067 109.074 24.1333 108.634 24.04C108.207 23.9333 107.894 23.8133 107.694 23.68C107.427 23.48 107.234 23.1933 107.114 22.82C107.007 22.4467 106.914 22.0933 106.834 21.76C106.581 21.8133 106.347 21.8933 106.134 22C105.934 22.0933 105.707 22.2267 105.454 22.4C105.201 22.56 104.874 22.7733 104.474 23.04C103.834 23.4667 103.214 23.7733 102.614 23.96C102.014 24.1333 101.367 24.24 100.674 24.28C99.9806 24.3067 99.1739 24.32 98.2539 24.32ZM111.398 24.32C111.292 24.32 111.238 24.2667 111.238 24.16V22.12C111.238 22.0133 111.292 21.96 111.398 21.96C111.718 21.96 112.032 21.9267 112.338 21.86C112.658 21.7933 112.965 21.7 113.258 21.58C112.965 19.7133 112.665 17.5 112.358 14.94C112.305 14.5133 112.252 14.0733 112.198 13.62C112.158 13.1667 112.112 12.7 112.058 12.22C112.418 11.9533 112.798 11.7133 113.198 11.5C113.598 11.2867 114.012 11.0867 114.438 10.9C114.425 11.3933 114.405 12.08 114.378 12.96C114.365 13.8267 114.345 14.7933 114.318 15.86C114.305 16.9133 114.292 17.9867 114.278 19.08V21.4C114.838 21.7733 115.565 21.96 116.458 21.96C116.578 21.96 116.638 22.0133 116.638 22.12V24.16C116.638 24.2667 116.578 24.32 116.458 24.32C115.352 24.32 114.532 24.0867 113.998 23.62C113.705 23.8067 113.325 23.9733 112.858 24.12C112.405 24.2533 111.918 24.32 111.398 24.32ZM116.301 24.32C116.194 24.32 116.141 24.2667 116.141 24.16V22.12C116.141 22.0133 116.194 21.96 116.301 21.96C116.647 21.9467 116.994 21.94 117.341 21.94C117.687 21.94 118.027 21.94 118.361 21.94C118.507 21.74 118.647 21.5467 118.781 21.36C118.914 21.16 119.047 20.9733 119.181 20.8C118.861 19.24 118.594 17.9667 118.381 16.98C118.181 15.9933 118.021 15.22 117.901 14.66C117.794 14.1 117.714 13.6867 117.661 13.42C117.621 13.1533 117.601 12.9667 117.601 12.86C117.601 12.3133 117.794 11.8533 118.181 11.48C118.581 11.0933 119.067 10.9 119.641 10.9C119.774 11.3533 119.907 11.7867 120.041 12.2C120.174 12.6 120.314 12.9867 120.461 13.36L119.821 13.84C119.861 14.4267 119.901 15.02 119.941 15.62C119.994 16.22 120.041 16.8133 120.081 17.4C120.107 17.7467 120.134 18.0933 120.161 18.44C120.201 18.7867 120.227 19.1333 120.241 19.48C122.134 17.2667 123.741 16.16 125.061 16.16C125.607 16.16 126.181 16.3267 126.781 16.66C127.381 16.98 127.921 17.4333 128.401 18.02C128.894 18.62 129.141 19.0867 129.141 19.42C129.141 20.1267 128.907 20.7933 128.441 21.42C129.107 21.78 129.821 21.96 130.581 21.96C130.701 21.96 130.761 22.0133 130.761 22.12V24.16C130.761 24.2667 130.701 24.32 130.581 24.32C129.927 24.32 129.281 24.1733 128.641 23.88C128.014 23.5733 127.467 23.1533 127.001 22.62C126.001 23.1533 124.647 23.5733 122.941 23.88C121.247 24.1733 119.034 24.32 116.301 24.32ZM119.921 21.9C119.987 21.9 120.154 21.8933 120.421 21.88C120.701 21.8667 121.027 21.8533 121.401 21.84C121.774 21.8133 122.147 21.7867 122.521 21.76C122.894 21.72 123.207 21.68 123.461 21.64C123.807 21.5733 124.154 21.5067 124.501 21.44C124.847 21.3733 125.281 21.2733 125.801 21.14C126.321 21.0067 127.001 20.82 127.841 20.58C127.387 20.0733 126.981 19.68 126.621 19.4C126.274 19.1067 125.941 18.9 125.621 18.78C125.314 18.66 124.967 18.6 124.581 18.6C123.354 18.6 121.801 19.7 119.921 21.9ZM138.522 24.5C137.629 24.5 136.695 24.42 135.722 24.26C134.762 24.0867 133.882 23.8133 133.082 23.44C133.002 23.56 132.889 23.66 132.742 23.74C132.462 23.9267 132.109 24.0733 131.682 24.18C131.269 24.2733 130.849 24.32 130.422 24.32C130.315 24.32 130.262 24.2667 130.262 24.16V22.12C130.262 22.0133 130.315 21.96 130.422 21.96C130.955 21.96 131.369 21.9267 131.662 21.86C131.955 21.78 132.202 21.6333 132.402 21.42C132.602 21.2067 132.815 20.8933 133.042 20.48C133.095 20.3867 133.142 20.2933 133.182 20.2C133.235 20.1067 133.289 20.0133 133.342 19.92C133.542 19.56 133.842 19.38 134.242 19.38C134.442 19.38 134.655 19.4467 134.882 19.58C134.749 19.9133 134.615 20.24 134.482 20.56C134.362 20.88 134.235 21.2 134.102 21.52C134.249 21.5733 134.389 21.62 134.522 21.66C134.655 21.7 134.789 21.7467 134.922 21.8C136.295 19.9733 137.509 18.6333 138.562 17.78C139.575 16.9267 140.475 16.5 141.262 16.5C141.595 16.5 141.962 16.6 142.362 16.8C142.775 17 143.182 17.26 143.582 17.58C143.982 17.9 144.329 18.2467 144.622 18.62C145.075 19.1667 145.302 19.62 145.302 19.98C145.302 20.4333 145.229 20.8467 145.082 21.22C145.562 21.5 145.969 21.6933 146.302 21.8C146.635 21.9067 147.035 21.96 147.502 21.96C147.622 21.96 147.682 22.0133 147.682 22.12V24.16C147.682 24.2667 147.622 24.32 147.502 24.32C146.889 24.32 146.275 24.1867 145.662 23.92C145.062 23.6533 144.522 23.26 144.042 22.74C143.722 23.0467 143.249 23.3467 142.622 23.64C141.995 23.92 141.322 24.1333 140.602 24.28C140.242 24.3467 139.889 24.4 139.542 24.44C139.209 24.48 138.869 24.5 138.522 24.5ZM138.722 22.3C139.682 22.3 140.582 22.1867 141.422 21.96C142.262 21.7333 143.169 21.3867 144.142 20.92C142.942 19.5467 141.815 18.86 140.762 18.86C140.175 18.86 139.489 19.14 138.702 19.7C137.929 20.26 137.109 21.0533 136.242 22.08C136.669 22.1467 137.089 22.2 137.502 22.24C137.915 22.28 138.322 22.3 138.722 22.3ZM153.636 24.5C152.783 24.5 151.989 24.4267 151.256 24.28C150.536 24.12 149.943 23.9133 149.476 23.66C149.103 23.9133 148.749 24.0867 148.416 24.18C148.083 24.2733 147.723 24.32 147.336 24.32C147.229 24.32 147.176 24.2667 147.176 24.16V22.12C147.176 22.0133 147.229 21.96 147.336 21.96C147.669 21.96 148.016 21.9133 148.376 21.82C148.376 21.7933 148.376 21.7667 148.376 21.74C148.389 21.7 148.396 21.66 148.396 21.62C148.489 20.9133 148.729 20.2133 149.116 19.52C149.516 18.8133 149.983 18.2533 150.516 17.84C151.076 17.4 151.649 17.18 152.236 17.18C152.503 17.18 152.756 17.3533 152.996 17.7C153.103 17.8733 153.223 18.12 153.356 18.44C153.503 18.7467 153.656 19.12 153.816 19.56C154.136 20.4933 154.469 21.14 154.816 21.5C155.096 21.8067 155.396 21.96 155.716 21.96C155.863 21.96 155.936 22.02 155.936 22.14V24.1C155.936 24.2467 155.863 24.32 155.716 24.32C155.049 24.32 154.449 24.0667 153.916 23.56L153.636 24.5ZM153.016 22.28C152.576 21.4 152.296 20.4067 152.176 19.3C150.989 19.7667 150.103 20.3733 149.516 21.12C149.889 21.4133 150.363 21.6533 150.936 21.84C151.523 22.0267 152.216 22.1733 153.016 22.28ZM155.598 24.32C155.491 24.32 155.438 24.2667 155.438 24.16V22.12C155.438 22.0133 155.491 21.96 155.598 21.96C156.184 21.96 156.884 21.8067 157.698 21.5C157.644 21.1133 157.591 20.7267 157.538 20.34C157.498 19.94 157.444 19.5467 157.378 19.16C157.324 18.7733 157.191 18.0067 156.978 16.86C156.764 15.7 156.484 14.1533 156.138 12.22C156.484 11.98 156.858 11.7533 157.258 11.54C157.671 11.3267 158.091 11.1133 158.518 10.9C158.544 11.9933 158.571 13.0333 158.598 14.02C158.624 14.9933 158.651 15.9067 158.678 16.76C158.704 17.6133 158.724 18.4067 158.738 19.14C158.751 19.86 158.758 20.5333 158.758 21.16C158.758 22.0667 158.498 22.9133 157.978 23.7C157.844 23.8867 157.558 24.04 157.118 24.16C156.691 24.2667 156.184 24.32 155.598 24.32ZM162.354 24.32C162.287 22.9467 162.22 21.74 162.154 20.7C162.087 19.66 162.02 18.7067 161.954 17.84C161.887 16.96 161.814 16.1067 161.734 15.28C161.654 14.4533 161.567 13.56 161.474 12.6C161.434 12.2667 161.507 11.9733 161.694 11.72C161.894 11.4667 162.16 11.2667 162.494 11.12C162.84 10.9733 163.214 10.9 163.614 10.9C163.72 11.3133 163.84 11.7267 163.974 12.14C164.12 12.5533 164.274 12.96 164.434 13.36L163.734 13.88C163.76 14.9867 163.767 16.4067 163.754 18.14C163.74 19.8733 163.7 21.88 163.634 24.16L162.354 24.32ZM171.811 30.64C171.811 30.0133 171.791 29.3133 171.751 28.54C171.725 27.78 171.678 26.94 171.611 26.02C171.531 25.1 171.471 24.3467 171.431 23.76C171.405 23.16 171.391 22.7267 171.391 22.46C171.391 22.3133 171.451 22.06 171.571 21.7C171.638 21.5267 171.725 21.3067 171.831 21.04C171.938 20.7733 172.071 20.4667 172.231 20.12C172.271 20.0533 172.431 19.9133 172.711 19.7C172.991 19.4733 173.325 19.2267 173.711 18.96C174.111 18.68 174.491 18.4333 174.851 18.22C175.411 17.9133 175.945 17.6667 176.451 17.48C176.958 17.28 177.398 17.18 177.771 17.18C178.011 17.18 178.218 17.3 178.391 17.54C178.578 17.78 178.751 18.0733 178.911 18.42C178.978 18.5933 179.051 18.78 179.131 18.98C179.211 19.1667 179.285 19.36 179.351 19.56C179.498 19.9733 179.658 20.36 179.831 20.72C180.018 21.08 180.218 21.3733 180.431 21.6C180.658 21.84 180.931 21.96 181.251 21.96C181.398 21.96 181.471 22.02 181.471 22.14V24.1C181.471 24.2467 181.398 24.32 181.251 24.32C180.598 24.32 179.998 24.0667 179.451 23.56L179.191 24.5C178.178 24.5 177.271 24.4067 176.471 24.22C175.685 24.02 175.058 23.74 174.591 23.38C174.138 23.0067 173.911 22.5733 173.911 22.08C173.911 21.6133 173.991 21.1533 174.151 20.7C173.991 20.7933 173.778 20.9333 173.511 21.12C173.258 21.3067 172.951 21.5333 172.591 21.8C172.698 22.4933 172.811 23.2067 172.931 23.94C173.051 24.66 173.198 25.5467 173.371 26.6C173.478 27.24 173.571 27.8 173.651 28.28C173.731 28.7733 173.791 29.18 173.831 29.5C173.125 30.0333 172.451 30.4133 171.811 30.64ZM178.551 22.28C178.111 21.4 177.831 20.4067 177.711 19.3C176.591 19.74 175.705 20.3467 175.051 21.12C175.745 21.6933 176.911 22.08 178.551 22.28ZM181.125 24.32C181.018 24.32 180.965 24.2667 180.965 24.16V22.12C180.965 22.0133 181.018 21.96 181.125 21.96C182.098 21.96 182.925 21.9467 183.605 21.92C184.285 21.88 184.945 21.7667 185.585 21.58C186.158 21.4067 186.645 21.2667 187.045 21.16C187.458 21.0533 187.778 20.9733 188.005 20.92C187.832 20.8133 187.652 20.7067 187.465 20.6C187.292 20.48 187.112 20.36 186.925 20.24C186.498 19.96 186.138 19.76 185.845 19.64C185.565 19.52 185.278 19.46 184.985 19.46C184.585 19.46 184.205 19.52 183.845 19.64C183.485 19.7467 183.078 19.9467 182.625 20.24C182.505 20.12 182.398 19.9467 182.305 19.72C182.212 19.48 182.165 19.2533 182.165 19.04C182.165 18.4533 182.425 17.98 182.945 17.62C183.465 17.2467 184.118 17.06 184.905 17.06C185.332 17.06 185.738 17.1333 186.125 17.28C186.525 17.4267 186.972 17.6667 187.465 18C188.065 18.4133 188.618 18.7467 189.125 19C189.632 19.24 190.232 19.4533 190.925 19.64C191.272 19.72 191.652 19.7867 192.065 19.84C192.478 19.88 192.932 19.9 193.425 19.9L192.545 21.58C192.385 21.5667 192.225 21.56 192.065 21.56C191.905 21.56 191.745 21.5533 191.585 21.54C191.718 21.66 191.865 21.7467 192.025 21.8C192.185 21.84 192.365 21.8733 192.565 21.9C192.872 21.9133 193.185 21.9267 193.505 21.94C193.838 21.94 194.152 21.9467 194.445 21.96C194.552 21.96 194.605 22.0133 194.605 22.12V24.16C194.605 24.2667 194.552 24.32 194.445 24.32C193.965 24.32 193.465 24.3 192.945 24.26C192.425 24.2067 191.945 24.1333 191.505 24.04C191.078 23.9333 190.765 23.8133 190.565 23.68C190.298 23.48 190.105 23.1933 189.985 22.82C189.878 22.4467 189.785 22.0933 189.705 21.76C189.452 21.8133 189.218 21.8933 189.005 22C188.805 22.0933 188.578 22.2267 188.325 22.4C188.072 22.56 187.745 22.7733 187.345 23.04C186.705 23.4667 186.085 23.7733 185.485 23.96C184.885 24.1333 184.238 24.24 183.545 24.28C182.852 24.3067 182.045 24.32 181.125 24.32ZM188.025 27.96C187.665 27.6667 187.358 27.4 187.105 27.16C186.852 26.92 186.638 26.7067 186.465 26.52C186.732 26.2533 186.992 25.9867 187.245 25.72C187.498 25.4667 187.745 25.2 187.985 24.92C188.332 25.32 188.812 25.8 189.425 26.36C189.278 26.5733 189.085 26.8133 188.845 27.08C188.605 27.36 188.332 27.6533 188.025 27.96ZM194.29 24.32C194.17 24.32 194.11 24.26 194.11 24.14V22.14C194.11 22.02 194.17 21.96 194.29 21.96C194.996 21.96 195.643 21.9533 196.23 21.94C196.816 21.9133 197.336 21.86 197.79 21.78L197.39 21.28C197.203 21.0267 197.03 20.8133 196.87 20.64C196.723 20.4667 196.576 20.3133 196.43 20.18C196.323 20.0733 196.216 19.9733 196.11 19.88C196.003 19.7867 195.896 19.6933 195.79 19.6L195.43 19.86C195.07 19.4733 194.89 19.0467 194.89 18.58C194.89 18.1267 195.09 17.7333 195.49 17.4C195.89 17.0667 196.436 16.7733 197.13 16.52C197.81 16.28 198.47 16.16 199.11 16.16C199.696 16.16 200.25 16.2867 200.77 16.54C201.29 16.7933 201.696 17.1467 201.99 17.6C202.296 18.0533 202.45 18.52 202.45 19C202.45 19.48 202.316 19.9533 202.05 20.42C201.783 20.8867 201.396 21.3533 200.89 21.82C201.25 21.8733 201.63 21.9133 202.03 21.94C202.443 21.9533 202.89 21.96 203.37 21.96C203.503 21.96 203.57 22.02 203.57 22.14V24.14C203.57 24.26 203.503 24.32 203.37 24.32C202.436 24.32 201.596 24.2133 200.85 24C200.103 23.7867 199.503 23.4867 199.05 23.1C197.623 23.9133 196.036 24.32 194.29 24.32ZM199.35 21.18C200.083 20.7 200.45 20.1267 200.45 19.46C200.45 19.1267 200.33 18.8667 200.09 18.68C199.85 18.48 199.55 18.38 199.19 18.38C198.843 18.38 198.51 18.4133 198.19 18.48C197.883 18.5467 197.516 18.6733 197.09 18.86C197.236 18.9933 197.456 19.2067 197.75 19.5C198.056 19.78 198.416 20.1467 198.83 20.6C198.91 20.6933 198.99 20.7867 199.07 20.88C199.163 20.9733 199.256 21.0733 199.35 21.18ZM210.574 24.5C209.681 24.5 208.781 24.4 207.874 24.2C206.981 23.9867 206.221 23.7133 205.594 23.38C205.274 23.7133 204.934 23.9533 204.574 24.1C204.214 24.2467 203.768 24.32 203.234 24.32C203.128 24.32 203.074 24.2667 203.074 24.16V22.12C203.074 22.0133 203.128 21.96 203.234 21.96C204.328 21.96 205.134 21.4667 205.654 20.48C205.894 20 206.108 19.5933 206.294 19.26C206.494 18.9133 206.668 18.64 206.814 18.44C207.148 17.9867 207.461 17.6667 207.754 17.48C208.048 17.28 208.388 17.18 208.774 17.18C209.254 17.18 209.721 17.4333 210.174 17.94C210.641 18.4333 211.021 19.0933 211.314 19.92C211.608 20.72 211.754 21.4933 211.754 22.24C211.754 22.5867 211.634 22.9867 211.394 23.44C211.154 23.8933 210.881 24.2467 210.574 24.5ZM209.914 22.3C209.861 21.8067 209.754 21.3533 209.594 20.94C209.434 20.5133 209.254 20.1733 209.054 19.92C208.841 19.6667 208.648 19.54 208.474 19.54C208.181 19.54 207.921 19.66 207.694 19.9C207.481 20.1267 207.161 20.66 206.734 21.5C207.161 21.6867 207.634 21.8533 208.154 22C208.688 22.1333 209.274 22.2333 209.914 22.3Z" fill="#0F172A"/>
<path d="M224.096 10.2205V29.4205H218.507V27.6051H221.932V12.0564H218.507V10.2205H224.096Z" fill="#0F172A"/>
</svg>
